<svg width="128" height="128" viewBox="0 0 128 128" fill="none" xmlns="http://www.w3.org/2000/svg">
  <rect width="128" height="128" rx="32" fill="#111714"/>
  <circle cx="44" cy="46" r="30" fill="#EB8A58" fill-opacity="0.9"/>
  <circle cx="86" cy="84" r="26" fill="#74B7A5" fill-opacity="0.72"/>
  <path d="M30 88L50 38H57L77 88H68.4L63.6 75.7H43.1L38.2 88H30ZM45.9 68.2H60.9L53.5 48.8L45.9 68.2Z" fill="#F8EFDF"/>
  <path d="M78.8 88V38H93.7C100.7 38 105.9 39.4 109.2 42.2C112.6 44.9 114.3 48.9 114.3 54.1C114.3 57.5 113.4 60.4 111.8 62.7C110.2 64.9 107.9 66.6 104.9 67.7L116 88H105.8L96.4 69.6H87.2V88H78.8ZM87.2 62.3H93.3C97.1 62.3 100 61.6 101.8 60.2C103.8 58.7 104.7 56.7 104.7 54C104.7 51.2 103.8 49.2 101.9 47.8C100.1 46.4 97.2 45.7 93.4 45.7H87.2V62.3Z" fill="#F8EFDF"/>
</svg>
