<svg width="640" height="720" viewBox="0 0 640 720" fill="none" xmlns="http://www.w3.org/2000/svg">
  <rect width="640" height="720" rx="48" fill="url(#paint0_linear_1_2)"/>
  <circle cx="154" cy="160" r="94" fill="url(#paint1_radial_1_2)"/>
  <circle cx="516" cy="170" r="74" fill="url(#paint2_radial_1_2)"/>
  <rect x="64" y="76" width="208" height="72" rx="26" fill="white" fill-opacity="0.72"/>
  <text x="94" y="122" fill="#FF6F0A" font-family="Arial Black, Segoe UI, sans-serif" font-size="42" font-weight="900" letter-spacing="-3">ярко</text>
  <text x="168" y="138" fill="#2E3138" font-family="Segoe UI, Arial, sans-serif" font-size="16" font-weight="800">оптика</text>
  <g filter="url(#filter0_d_1_2)">
    <rect x="90" y="236" width="460" height="268" rx="42" fill="white" fill-opacity="0.82"/>
    <path d="M165 368C165 334.311 192.311 307 226 307H278C307.823 307 332 331.177 332 361V383C332 416.689 304.689 444 271 444H219C189.177 444 165 419.823 165 390V368Z" stroke="#2E3138" stroke-width="16"/>
    <path d="M308 361C308 331.177 332.177 307 362 307H414C447.689 307 475 334.311 475 368V390C475 419.823 450.823 444 421 444H369C335.311 444 308 416.689 308 383V361Z" stroke="#2E3138" stroke-width="16"/>
    <path d="M332 372H308" stroke="#2E3138" stroke-width="14" stroke-linecap="round"/>
    <path d="M196 319L181 276" stroke="#FF7A00" stroke-width="18" stroke-linecap="round"/>
    <path d="M443 319L458 276" stroke="#FF7A00" stroke-width="18" stroke-linecap="round"/>
  </g>
  <g filter="url(#filter1_d_1_2)">
    <rect x="98" y="542" width="210" height="108" rx="28" fill="#FF7A00"/>
    <text x="126" y="588" fill="white" font-family="Segoe UI, Arial, sans-serif" font-size="18" font-weight="700">Персональный подбор</text>
    <text x="126" y="620" fill="white" font-family="Segoe UI, Arial, sans-serif" font-size="34" font-weight="800">от 20 минут</text>
  </g>
  <g filter="url(#filter2_d_1_2)">
    <rect x="348" y="546" width="194" height="96" rx="28" fill="white" fill-opacity="0.86"/>
    <text x="378" y="588" fill="#2E3138" font-family="Segoe UI, Arial, sans-serif" font-size="18" font-weight="700">Новые коллекции</text>
    <text x="378" y="618" fill="#FF7A00" font-family="Segoe UI, Arial, sans-serif" font-size="30" font-weight="800">каждую неделю</text>
  </g>
  <defs>
    <filter id="filter0_d_1_2" x="133" y="283" width="374" height="217" filterUnits="userSpaceOnUse" color-interpolation-filters="sRGB">
      <feFlood flood-opacity="0" result="BackgroundImageFix"/>
      <feColorMatrix in="SourceAlpha" type="matrix" values="0 0 0 0 0 0 0 0 0 0 0 0 0 0 0 0 0 0 127 0" result="hardAlpha"/>
      <feOffset dy="22"/>
      <feGaussianBlur stdDeviation="16"/>
      <feComposite in2="hardAlpha" operator="out"/>
      <feColorMatrix type="matrix" values="0 0 0 0 0.658824 0 0 0 0 0.356863 0 0 0 0 0.0588235 0 0 0 0.16 0"/>
      <feBlend mode="normal" in2="BackgroundImageFix" result="effect1_dropShadow_1_2"/>
      <feBlend mode="normal" in="SourceGraphic" in2="effect1_dropShadow_1_2" result="shape"/>
    </filter>
    <filter id="filter1_d_1_2" x="66" y="526" width="274" height="172" filterUnits="userSpaceOnUse" color-interpolation-filters="sRGB">
      <feFlood flood-opacity="0" result="BackgroundImageFix"/>
      <feColorMatrix in="SourceAlpha" type="matrix" values="0 0 0 0 0 0 0 0 0 0 0 0 0 0 0 0 0 0 127 0" result="hardAlpha"/>
      <feOffset dy="14"/>
      <feGaussianBlur stdDeviation="16"/>
      <feComposite in2="hardAlpha" operator="out"/>
      <feColorMatrix type="matrix" values="0 0 0 0 0.658824 0 0 0 0 0.356863 0 0 0 0 0.0588235 0 0 0 0.24 0"/>
      <feBlend mode="normal" in2="BackgroundImageFix" result="effect1_dropShadow_1_2"/>
      <feBlend mode="normal" in="SourceGraphic" in2="effect1_dropShadow_1_2" result="shape"/>
    </filter>
    <filter id="filter2_d_1_2" x="316" y="530" width="258" height="160" filterUnits="userSpaceOnUse" color-interpolation-filters="sRGB">
      <feFlood flood-opacity="0" result="BackgroundImageFix"/>
      <feColorMatrix in="SourceAlpha" type="matrix" values="0 0 0 0 0 0 0 0 0 0 0 0 0 0 0 0 0 0 127 0" result="hardAlpha"/>
      <feOffset dy="14"/>
      <feGaussianBlur stdDeviation="16"/>
      <feComposite in2="hardAlpha" operator="out"/>
      <feColorMatrix type="matrix" values="0 0 0 0 0.403922 0 0 0 0 0.431373 0 0 0 0 0.470588 0 0 0 0.16 0"/>
      <feBlend mode="normal" in2="BackgroundImageFix" result="effect1_dropShadow_1_2"/>
      <feBlend mode="normal" in="SourceGraphic" in2="effect1_dropShadow_1_2" result="shape"/>
    </filter>
    <linearGradient id="paint0_linear_1_2" x1="84" y1="52" x2="548" y2="672" gradientUnits="userSpaceOnUse">
      <stop stop-color="#FFF5EA"/>
      <stop offset="1" stop-color="#FFFDF9"/>
    </linearGradient>
    <radialGradient id="paint1_radial_1_2" cx="0" cy="0" r="1" gradientUnits="userSpaceOnUse" gradientTransform="translate(154 160) rotate(90) scale(94)">
      <stop stop-color="#FFB26B"/>
      <stop offset="1" stop-color="#FFB26B" stop-opacity="0"/>
    </radialGradient>
    <radialGradient id="paint2_radial_1_2" cx="0" cy="0" r="1" gradientUnits="userSpaceOnUse" gradientTransform="translate(516 170) rotate(90) scale(74)">
      <stop stop-color="#FFDAB6"/>
      <stop offset="1" stop-color="#FFDAB6" stop-opacity="0"/>
    </radialGradient>
  </defs>
</svg>
