<svg width="520" height="360" viewBox="0 0 520 360" fill="none" xmlns="http://www.w3.org/2000/svg">
  <rect width="520" height="360" rx="36" fill="url(#paint0_linear_3_2)"/>
  <circle cx="404" cy="94" r="72" fill="#FFD1A3"/>
  <rect x="82" y="84" width="356" height="194" rx="38" fill="#2E3138" fill-opacity="0.06"/>
  <path d="M136 188C136 161.49 157.49 140 184 140H226C248.091 140 266 157.909 266 180V196C266 222.51 244.51 244 218 244H176C153.909 244 136 226.091 136 204V188Z" fill="#2E3138" fill-opacity="0.88"/>
  <path d="M254 180C254 157.909 271.909 140 294 140H336C362.51 140 384 161.49 384 188V204C384 226.091 366.091 244 344 244H302C275.49 244 254 222.51 254 196V180Z" fill="#2E3138" fill-opacity="0.88"/>
  <path d="M266 190H254" stroke="#FF7A00" stroke-width="11" stroke-linecap="round"/>
  <path d="M160 151L148 116" stroke="#FF7A00" stroke-width="12" stroke-linecap="round"/>
  <path d="M360 151L372 116" stroke="#FF7A00" stroke-width="12" stroke-linecap="round"/>
  <defs>
    <linearGradient id="paint0_linear_3_2" x1="58" y1="40" x2="458" y2="322" gradientUnits="userSpaceOnUse">
      <stop stop-color="#FFF0E0"/>
      <stop offset="1" stop-color="#FFF8F0"/>
    </linearGradient>
  </defs>
</svg>
