<svg width="520" height="360" viewBox="0 0 520 360" fill="none" xmlns="http://www.w3.org/2000/svg">
  <rect width="520" height="360" rx="36" fill="url(#paint0_linear_2_2)"/>
  <circle cx="112" cy="96" r="68" fill="#FFE6CC"/>
  <circle cx="420" cy="272" r="72" fill="#FFF4E8"/>
  <rect x="82" y="82" width="356" height="196" rx="34" fill="white" fill-opacity="0.84"/>
  <path d="M138 186C138 160.042 159.042 139 185 139H217C240.748 139 260 158.252 260 182V190C260 215.958 238.958 237 213 237H181C157.252 237 138 217.748 138 194V186Z" stroke="#2E3138" stroke-width="14"/>
  <path d="M260 182C260 158.252 279.252 139 303 139H335C360.958 139 382 160.042 382 186V194C382 217.748 362.748 237 339 237H307C281.042 237 260 215.958 260 190V182Z" stroke="#2E3138" stroke-width="14"/>
  <path d="M260 188H243" stroke="#2E3138" stroke-width="12" stroke-linecap="round"/>
  <path d="M164 147L151 114" stroke="#FF7A00" stroke-width="12" stroke-linecap="round"/>
  <path d="M356 147L369 114" stroke="#FF7A00" stroke-width="12" stroke-linecap="round"/>
  <defs>
    <linearGradient id="paint0_linear_2_2" x1="76" y1="34" x2="438" y2="316" gradientUnits="userSpaceOnUse">
      <stop stop-color="#FFF4E7"/>
      <stop offset="1" stop-color="#FFFCF8"/>
    </linearGradient>
  </defs>
</svg>
